<svg xmlns="http://www.w3.org/2000/svg" viewBox="0 0 500 500"><g id="freepik--Shadow--inject-345"><g id="freepik--Shape--inject-345"><ellipse id="freepik--path--inject-63--inject-345" cx="250" cy="416.24" rx="193.89" ry="11.32" style="fill:#f5f5f5"></ellipse></g></g><g id="freepik--character-2--inject-345"><path d="M238.59,97.75a14.27,14.27,0,0,0,1.46,12.17c3.88,5.88,3-13.56,3-13.56Z" style="fill:#263238"></path><path d="M246.54,141.84s-24,33.6-28.69,32.19-15.5-22.37-15.5-22.37l-.63-8.29-7.08-9.75-9,7.1,4.36,8.11s1.3,4.21,5.14,5.39c0,0,8.83,27.11,20,32.2s26.67-27.21,26.67-27.21Z" style="fill:#ffb573"></path><path d="M297.92,386.69l-12.39,4.71c-16-35.14-29-137.62-29-137.62s-.38,2.87-.95,7.49c-1.86,15.3-5.8,49.69-5,62,1.27,20.71-2.39,71.89-2.39,71.89l-15,1.78s.51-50.59-1.63-78.62,4.41-99.95,4.41-99.95l41.37-1.9c7.1,8.16,8.87,108.59,10.65,117.82S297.92,386.69,297.92,386.69Z" style="fill:#263238"></path><path d="M231.89,146.85a4.17,4.17,0,0,1,1.79-2.72c3.35-2.24,11.94-7.82,14.25-8,2.9-.23,18.06-3.79,24.07,0s9.81,14.93,9.81,14.93-.44,51.49-3.12,68.21l-42.79-.89S229.17,161.94,231.89,146.85Z" style="fill:#407BFF"></path><path d="M279.81,165.55l6.68,12.26s.89,27.64-1.33,34.77l-3.35,6.69V230l8,1.11,2.23-8.47s1.33-6.24,0-8.91c0,0,9.36-21.4,6-39.9,0,0-16.89-37.24-27.25-38.27S279.81,165.55,279.81,165.55Z" style="fill:#ffb573"></path><path d="M266.17,135.61s-6.61,6.38-12.64,6.2-4.38-5.32-4.38-5.32c3.1-.58,4.11-3.68,4.4-6.34a18.73,18.73,0,0,0,0-4s-7.19,0-11.23-8.78,0-20.35,0-20.35,15.27-3.86,22.11-1.93,1.41,19.12,1.41,19.12C264.06,123.86,266.17,135.61,266.17,135.61Z" style="fill:#ffb573"></path><path d="M252.77,106.17c0,.69-.38,1.25-.84,1.25s-.83-.56-.83-1.25.37-1.25.83-1.25S252.77,105.48,252.77,106.17Z" style="fill:#263238"></path><path d="M244.25,107c0,.69-.37,1.25-.83,1.25s-.84-.56-.84-1.25.38-1.25.84-1.25S244.25,106.28,244.25,107Z" style="fill:#263238"></path><path d="M247.07,107.6l0,6.71a2.92,2.92,0,0,1-3.11-.92Z" style="fill:#ed893e"></path><path d="M249.92,115.48s3.56,0,4.86-2.93" style="fill:none;stroke:#263238;stroke-linecap:round;stroke-linejoin:round"></path><path d="M251.1,101.35s3.1-.25,4,1.68" style="fill:none;stroke:#263238;stroke-linecap:round;stroke-linejoin:round"></path><path d="M240.51,103.71a3.87,3.87,0,0,1,2.91-2.37" style="fill:none;stroke:#263238;stroke-linecap:round;stroke-linejoin:round"></path><path d="M259,125.08a16.72,16.72,0,0,1-5.44,5.07,18.73,18.73,0,0,0,0-4A14.23,14.23,0,0,0,259,125.08Z" style="opacity:0.2"></path><polygon points="251.75 142.02 255.38 141.68 256.4 149.26 254.51 152.73 252.35 152.73 250.33 148.97 251.75 142.02" style="fill:#263238"></polygon><path d="M265.73,132.56a55.27,55.27,0,0,1-12.2,9.25l2.16,5.36s9.06-1.56,12.94-12.31Z" style="fill:#fff"></path><path d="M253.53,141.81l-2.43,5.36s-3.68-3.63-4.56-10.64l4.56-2.91S251.27,138.87,253.53,141.81Z" style="fill:#fff"></path><polygon points="252.51 150.73 250.04 182.78 254.19 187.82 258.02 182.47 254.28 150.73 252.51 150.73" style="fill:#263238"></polygon><path d="M268.92,109.4s-8.76,1.06-10.21-11.63c0,0-15.43,4.61-21-.12s-1.05-10.88-1.05-10.88a24.42,24.42,0,0,0,1.71,3.46v-4a29.11,29.11,0,0,0,3.09,3.45,19.29,19.29,0,0,0,13-2.51c6.69-4,15.2,3.59,13.63,9.44C268.14,96.64,275.68,102.52,268.92,109.4Z" style="fill:#263238"></path><path d="M262.91,109.76s2.36-8.37,6.24-5.42-1.65,11.19-4.35,10.72S262.91,109.76,262.91,109.76Z" style="fill:#ffb573"></path><path d="M194.87,156l8.44-4.66s9.07,17.52,14.33,19.72c0,0,10.69-10.79,14.21-24.3l4.79,22.52s-8.29,17.51-18.77,17.76S198.8,167.35,194.87,156Z" style="fill:#407BFF"></path><path d="M273.81,158.58,286.53,179l-2.12,31.63,9.57,1.87s7.37-22,4.1-38.65c-2.37-12.09-9.86-27.42-18.55-34.75a18.58,18.58,0,0,0-10.9-4.19s-2.35,5.42-2.23,10S273.81,158.58,273.81,158.58Z" style="fill:#407BFF"></path><path d="M281.47,170.86l-7.66-12.28c.66,1.06,7.66,22.28,7.66,22.28Z" style="opacity:0.2"></path><path d="M256.53,253.78s-.38,2.87-.95,7.49l-2-24.32Z" style="opacity:0.2"></path><polygon points="292.77 401.84 300.53 398.23 298.3 392.14 296.67 387.69 289.99 389.64 288.75 390.2 290.66 395.75 292.77 401.84" style="fill:#ffb573"></polygon><polygon points="290.66 395.75 298.3 392.14 296.67 387.69 289.99 389.64 288.75 390.2 290.66 395.75" style="opacity:0.2"></polygon><path d="M291.19,402.86s-5.82-6.76-7.58-5.15S291.19,402.86,291.19,402.86Z" style="fill:none;stroke:#407BFF;stroke-miterlimit:10"></path><path d="M290.74,403s-5.56-2.2-6.58-.06S290.74,403,290.74,403Z" style="fill:none;stroke:#407BFF;stroke-miterlimit:10"></path><path d="M292.27,398.5l8.11-3.28a2.31,2.31,0,0,1,3,1.27L306,403a2.3,2.3,0,0,1-1.27,3l-23.05,9.31a2.29,2.29,0,0,1-3-1.28h0a2.3,2.3,0,0,1,.93-2.83c3.06-1.87,9.42-6.25,11.36-11.37A2.26,2.26,0,0,1,292.27,398.5Z" style="fill:#263238"></path><polygon points="236.07 409.49 244.62 409.28 245 402.8 245.28 398.07 238.38 397.2 237.02 397.22 236.56 403.07 236.07 409.49" style="fill:#ffb573"></polygon><polygon points="236.56 403.07 245 402.8 245.28 398.07 238.38 397.2 237.02 397.22 236.56 403.07" style="opacity:0.2"></polygon><path d="M234.21,409.8s-2.64-8.52-4.89-7.74S234.21,409.8,234.21,409.8Z" style="fill:none;stroke:#407BFF;stroke-miterlimit:10"></path><path d="M233.72,409.79s-4.22-4.24-6-2.68S233.72,409.79,233.72,409.79Z" style="fill:none;stroke:#407BFF;stroke-miterlimit:10"></path><path d="M236.94,406.23l8.75.23a2.31,2.31,0,0,1,2.25,2.37l-.19,7a2.3,2.3,0,0,1-2.37,2.24l-24.85-.65a2.3,2.3,0,0,1-2.24-2.37h0a2.31,2.31,0,0,1,2-2.22c3.56-.5,11.13-2,14.95-5.91A2.32,2.32,0,0,1,236.94,406.23Z" style="fill:#263238"></path><polygon points="285.26 394.88 280.97 387.41 299.64 380.5 300.95 390.4 285.26 394.88" style="fill:#407BFF"></polygon><polygon points="231.11 390.34 231.11 400 250.7 400 251.45 390.34 231.11 390.34" style="fill:#407BFF"></polygon></g></svg>